<svg id="casino_x5F_7" enable-background="new 0 0 300 300" height="512" viewBox="0 0 300 300" width="512" xmlns="http://www.w3.org/2000/svg"><circle cx="120.31" cy="140.735" fill="#efefd2" r="92"/><g fill="#4c241d"><path d="m50.31 64.735c-7.719 0-14-6.281-14-14s6.281-14 14-14 14 6.281 14 14-6.281 14-14 14zm0-20c-3.309 0-6 2.691-6 6s2.691 6 6 6 6-2.691 6-6-2.691-6-6-6z"/><path d="m234.31 260.735c-7.719 0-14-6.281-14-14s6.281-14 14-14 14 6.281 14 14-6.281 14-14 14zm0-20c-3.309 0-6 2.691-6 6s2.691 6 6 6 6-2.691 6-6-2.691-6-6-6z"/><path d="m257.658 60.083c-1.023 0-2.047-.391-2.828-1.172l-14.695-14.695c-1.562-1.562-1.562-4.094 0-5.656s4.094-1.562 5.656 0l14.695 14.695c1.562 1.562 1.562 4.094 0 5.656-.781.781-1.805 1.172-2.828 1.172z"/><path d="m242.963 60.083c-1.023 0-2.047-.391-2.828-1.172-1.562-1.562-1.562-4.094 0-5.656l14.695-14.695c1.562-1.562 4.094-1.562 5.656 0s1.562 4.094 0 5.656l-14.695 14.695c-.782.781-1.805 1.172-2.828 1.172z"/><path d="m65.658 248.083c-1.023 0-2.047-.391-2.828-1.172l-14.695-14.695c-1.562-1.562-1.562-4.094 0-5.656s4.094-1.562 5.656 0l14.695 14.695c1.562 1.562 1.562 4.094 0 5.656-.781.781-1.805 1.172-2.828 1.172z"/><path d="m50.963 248.083c-1.023 0-2.047-.391-2.828-1.172-1.562-1.562-1.562-4.094 0-5.656l14.695-14.695c1.562-1.562 4.094-1.562 5.656 0s1.562 4.094 0 5.656l-14.695 14.695c-.782.781-1.805 1.172-2.828 1.172z"/><circle cx="98.31" cy="50.735" r="4.529"/></g><path d="m44.31 120.735v40h9.265l2.163-6.279c2.424-6 8.292-9.934 14.818-9.934h10.812s-24.705 30.578-24.705 64.213h43.235s-15.587-44 16.413-84l-2.516-6.204-7.042 3.873c-4.439 2.442-9.582 3.321-14.591 2.494l-15.852-4.164h-32z" fill="#f53e28"/><path d="m99.896 212.735h-43.234c-2.211 0-4-1.791-4-4 0-25.66 13.465-49.199 20.875-60.213h-2.98c-4.926 0-9.285 2.916-11.105 7.432l-2.094 6.084c-.555 1.615-2.074 2.697-3.781 2.697h-9.267c-2.211 0-4-1.791-4-4v-40c0-2.209 1.789-4 4-4h32c.344 0 .684.045 1.016.131l15.852 4.164c3.75.602 8.008-.131 11.645-2.129l7.047-3.875c.996-.551 2.191-.646 3.266-.264s1.938 1.207 2.367 2.266l2.516 6.203c.543 1.342.32 2.873-.582 4.002-30.16 37.697-15.914 79.752-15.766 80.172.43 1.225.238 2.582-.512 3.641s-1.966 1.689-3.263 1.689zm-39.113-8h33.824c-3.133-13.027-7.992-47.551 16.949-80.408l-2.879 1.584c-5.203 2.861-11.301 3.895-17.168 2.936l-15.715-4.111h-27.484v32h2.414l1.234-3.582c3.121-7.75 10.395-12.631 18.598-12.631h10.812c1.539 0 2.941.885 3.609 2.275.664 1.389.469 3.037-.496 4.236-.229.283-21.874 27.481-23.698 57.701z" fill="#4c241d"/><circle cx="162.31" cy="258.735" fill="#4c241d" r="4.529"/><circle cx="266.31" cy="86.735" fill="#4c241d" r="4.529"/><path d="m92.31 92.442v60.293h14.725l3.439-9.79c3.852-9.669 13.18-16.009 23.552-16.009h17.185s-38.9 51.593-38.9 105.799h68s-20-76 44.525-125.51l-22.088-22.175-11.192 6.242c-7.055 3.935-15.23 5.352-23.19 4.02l-9.726-1.627c-4.945-.827-9.949-1.243-14.962-1.243z" fill="#f53e28"/><path d="m180.31 236.735h-68c-2.211 0-4-1.791-4-4 0-44.301 24.789-86.15 35.219-101.799h-9.504c-8.785 0-16.57 5.295-19.836 13.488l-3.379 9.635c-.562 1.604-2.074 2.676-3.773 2.676h-14.727c-2.211 0-4-1.791-4-4v-60.293c0-2.209 1.789-4 4-4h51.367c5.219 0 10.473.436 15.621 1.297l9.727 1.629c7.039 1.18 14.344-.092 20.582-3.57l11.191-6.242c1.566-.873 3.512-.6 4.785.672l22.086 22.176c.809.814 1.23 1.939 1.156 3.088-.078 1.148-.645 2.207-1.559 2.908-61.57 47.246-43.281 120.586-43.086 121.322.312 1.199.051 2.477-.707 3.457s-1.924 1.556-3.163 1.556zm-63.926-8h59.039c-3.059-17.76-8.98-78.83 43.418-121.859l-16.789-16.857-8.547 4.768c-7.824 4.359-16.992 5.945-25.801 4.473l-9.727-1.629c-4.711-.787-9.523-1.188-14.301-1.188h-47.366v52.293h7.891l2.5-7.115c4.543-11.412 15.242-18.684 27.324-18.684h17.184c1.516 0 2.902.857 3.578 2.215.68 1.357.527 2.98-.383 4.191-.371.494-36.188 48.64-38.02 99.392z" fill="#4c241d"/><path d="m184.31 120.735v40h9.265l2.163-6.279c2.424-6 8.292-9.934 14.818-9.934h10.812s-24.705 30.578-24.705 64.213h43.234s-15.587-48 27.794-76.444l-13.897-13.76-7.042 3.873c-4.439 2.442-9.582 3.321-14.591 2.494l-15.852-4.164h-31.999z" fill="#f53e28"/><path d="m239.896 212.735h-43.234c-2.211 0-4-1.791-4-4 0-25.66 13.465-49.199 20.875-60.213h-2.98c-4.926 0-9.285 2.916-11.105 7.432l-2.094 6.084c-.555 1.615-2.074 2.697-3.781 2.697h-9.266c-2.211 0-4-1.791-4-4v-40c0-2.209 1.789-4 4-4h32c.344 0 .684.045 1.016.131l15.852 4.164c3.742.602 8.008-.131 11.645-2.129l7.047-3.875c1.547-.85 3.48-.59 4.742.664l13.895 13.76c.855.85 1.285 2.041 1.164 3.242s-.777 2.283-1.789 2.945c-40.355 26.461-26.328 71.412-26.18 71.863.395 1.217.184 2.551-.57 3.586-.752 1.036-1.956 1.649-3.237 1.649zm-39.113-8h34.047c-2.605-13.262-5.863-48.818 26.637-72.977l-8.363-8.281-4.426 2.434c-5.199 2.861-11.301 3.895-17.168 2.936l-15.715-4.111h-27.485v32h2.414l1.234-3.582c3.121-7.75 10.395-12.631 18.598-12.631h10.812c1.539 0 2.941.885 3.609 2.275.664 1.389.469 3.037-.496 4.236-.229.283-21.874 27.481-23.698 57.701z" fill="#4c241d"/></svg>